<svg id="Layer_1" data-name="Layer 1" xmlns="http://www.w3.org/2000/svg" viewBox="0 0 1051.69 192.54"><defs><style>.cls-1{fill:#fff;}</style></defs><polygon class="cls-1" points="153.5 38.89 153.5 103.96 88.43 103.96 88.43 38.89 23.36 38.89 23.36 103.96 23.36 169.03 88.43 169.03 153.5 169.03 218.57 169.03 218.57 103.96 218.57 38.89 153.5 38.89"/><path class="cls-1" d="M266.92,124.46c13.12,7.45,28,10.73,35.48,10.73,6.26,0,10.73-2.24,10.73-7.75,0-7.75-8.64-7.75-22.36-12.52-16.39-5.67-27.72-13.72-27.72-31.16,0-21,16.25-34.28,40.39-34.28,11.19,0,25.05,2.83,35.19,7.9V85.7C325.66,78.4,311.35,75,303.74,75c-5.66,0-9.54,1.79-9.54,6.56,0,7,8.35,7,21.47,11.62,16.84,6,28.62,14.31,28.62,32.5,0,21.76-17.14,35-42.19,35-11,0-24.74-2.53-35.18-7.45Z"/><path class="cls-1" d="M356.07,51.12h35c14,0,24.45,1.64,32.5,5.66,11.18,5.52,18.78,15.36,18.78,30.41,0,12.52-5.37,22.21-16.1,28.47-8.35,4.92-19.83,7.31-34.58,7.31h-4.92V159H356.07Zm36.22,48.59c6.71,0,11.33-.59,13.87-1.93,3.57-1.79,5.51-5.22,5.51-10,0-4.92-2.09-8.5-6-10.29-2.83-1.34-6.56-1.94-14.31-1.94h-4.62V99.71Z"/><path class="cls-1" d="M454.31,51.12H485v82h45V159H454.31Z"/><path class="cls-1" d="M576.1,51.12h30.26L650,159H616.64L609,137h-37L564.17,159H532.42Zm14.6,32.79C588.62,90.77,586.53,97,584,104l-3.73,10.28h20.87L597.56,104C595,96.73,593.09,90.62,591,83.91Z"/><path class="cls-1" d="M659.28,124.46c13.12,7.45,28,10.73,35.48,10.73,6.26,0,10.73-2.24,10.73-7.75,0-7.75-8.65-7.75-22.36-12.52-16.4-5.67-27.73-13.72-27.73-31.16,0-21,16.25-34.28,40.4-34.28,11.18,0,25,2.83,35.18,7.9V85.7C718,78.4,703.7,75,696.1,75c-5.67,0-9.54,1.79-9.54,6.56,0,7,8.35,7,21.47,11.62,16.84,6,28.62,14.31,28.62,32.5,0,21.76-17.15,35-42.19,35-11,0-24.75-2.53-35.18-7.45Z"/><path class="cls-1" d="M748.42,51.12h30.71V90h38.46V51.12H848.3V159H817.59V116H779.13V159H748.42Z"/><path class="cls-1" d="M870.22,51.12h27.57c17.29,0,30.71,3.57,41.15,11,13.11,9.39,21.16,25,21.16,42.63a53.22,53.22,0,0,1-18.63,41c-10.58,8.8-24.75,13.27-45.62,13.27H870.22Zm26.83,99.57c16,0,28.32-3,37.86-10.73,9.84-7.9,16.1-20.42,16.1-34.88,0-15.35-7-28-17.14-35.78-9.39-7.15-21.47-9.84-37-9.84H879.31v91.23Z"/><path class="cls-1" d="M980.08,51.12h9.1v99.57h53.51V159H980.08Z"/></svg>